<svg width="5307" height="677" viewBox="0 0 5307 677" fill="none" xmlns="http://www.w3.org/2000/svg">
<path d="M165.8 572.8C165.8 641.6 194.6 654.4 237 654.4C245 654.4 247.4 656 247.4 660.8C247.4 665.6 245 668 237 668C211.4 668 174.6 664 149 664H105C77.8 664 43.4 668 11.4 668C3.4 668 0.199999 666.4 0.199999 660.8C0.199999 656 3.4 654.4 11.4 654.4C61.8 654.4 87.4 641.6 88.2 572.8V100.8C88.2 52 76.2 48 62.6 48C41.8 48 19.4 52 10.6 52.8C3.4 53.6 0.999999 52 0.999999 47.2C0.999999 43.2 4.2 40.8 12.2 39.2C59.4 31.2 133.8 -3.43323e-05 157.8 -3.43323e-05C167.4 -3.43323e-05 171.4 5.59999 171.4 14.4C171.4 88.8 165.8 174.4 165.8 282.4V572.8ZM395.188 572.8C395.188 641.6 423.988 654.4 466.388 654.4C474.388 654.4 476.788 656 476.788 660.8C476.788 665.6 474.388 668 466.388 668C440.788 668 403.988 664 378.388 664H334.388C307.187 664 272.787 668 240.787 668C232.787 668 229.587 666.4 229.587 660.8C229.587 656 232.787 654.4 240.787 654.4C291.187 654.4 316.788 641.6 317.588 572.8V100.8C317.588 52 305.588 48 291.987 48C271.187 48 248.787 52 239.987 52.8C232.787 53.6 230.387 52 230.387 47.2C230.387 43.2 233.587 40.8 241.587 39.2C288.787 31.2 363.187 -3.43323e-05 387.188 -3.43323e-05C396.788 -3.43323e-05 400.788 5.59999 400.788 14.4C400.788 88.8 395.188 174.4 395.188 282.4V572.8ZM627.775 572.8C627.775 641.6 658.175 654.4 702.975 654.4C710.175 654.4 713.375 656 713.375 660.8C713.375 665.6 710.175 668 702.175 668C675.775 668 638.175 664 610.975 664H568.575C539.775 664 504.575 668 471.775 668C462.975 668 459.775 666.4 459.775 660.8C459.775 656 462.975 654.4 470.975 654.4C523.775 654.4 550.175 641.6 550.175 572.8L550.975 325.6C550.975 276.8 538.975 272.8 525.375 272.8C504.575 272.8 481.375 277.6 473.375 278.4C466.175 279.2 463.775 277.6 463.775 272C463.775 268 466.975 266.4 474.975 264.8C522.175 256.8 596.575 224.8 620.575 224.8C628.575 224.8 634.175 230.4 634.175 242.4C634.175 300 627.775 379.2 627.775 449.6V572.8ZM529.375 98.4C529.375 68.8 549.375 49.6 578.975 49.6C609.375 49.6 630.175 68.8 630.175 98.4C630.175 126.4 609.375 145.6 578.975 145.6C549.375 145.6 529.375 126.4 529.375 98.4ZM859.431 572.8C859.431 641.6 888.231 654.4 930.631 654.4C938.631 654.4 941.031 656 941.031 660.8C941.031 665.6 938.631 668 930.631 668C905.031 668 868.231 664 842.631 664H798.631C771.431 664 737.031 668 705.031 668C697.031 668 693.831 666.4 693.831 660.8C693.831 656 697.031 654.4 705.031 654.4C755.431 654.4 781.031 641.6 781.831 572.8V100.8C781.831 52 769.831 48 756.231 48C735.431 48 713.031 52 704.231 52.8C697.031 53.6 694.631 52 694.631 47.2C694.631 43.2 697.831 40.8 705.831 39.2C753.031 31.2 827.431 -3.43323e-05 851.431 -3.43323e-05C861.031 -3.43323e-05 865.031 5.59999 865.031 14.4C865.031 88.8 859.431 174.4 859.431 282.4V572.8ZM1088.82 572.8C1088.82 641.6 1117.62 654.4 1160.02 654.4C1168.02 654.4 1170.42 656 1170.42 660.8C1170.42 665.6 1168.02 668 1160.02 668C1134.42 668 1097.62 664 1072.02 664H1028.02C1000.82 664 966.419 668 934.419 668C926.419 668 923.219 666.4 923.219 660.8C923.219 656 926.419 654.4 934.419 654.4C984.819 654.4 1010.42 641.6 1011.22 572.8V100.8C1011.22 52 999.219 48 985.619 48C964.819 48 942.419 52 933.619 52.8C926.419 53.6 924.019 52 924.019 47.2C924.019 43.2 927.219 40.8 935.219 39.2C982.419 31.2 1056.82 -3.43323e-05 1080.82 -3.43323e-05C1090.42 -3.43323e-05 1094.42 5.59999 1094.42 14.4C1094.42 88.8 1088.82 174.4 1088.82 282.4V572.8ZM1318.21 572.8C1318.21 641.6 1347.01 654.4 1389.41 654.4C1397.41 654.4 1399.81 656 1399.81 660.8C1399.81 665.6 1397.41 668 1389.41 668C1363.81 668 1327.01 664 1301.41 664H1257.41C1230.21 664 1195.81 668 1163.81 668C1155.81 668 1152.61 666.4 1152.61 660.8C1152.61 656 1155.81 654.4 1163.81 654.4C1214.21 654.4 1239.81 641.6 1240.61 572.8V100.8C1240.61 52 1228.61 48 1215.01 48C1194.21 48 1171.81 52 1163.01 52.8C1155.81 53.6 1153.41 52 1153.41 47.2C1153.41 43.2 1156.61 40.8 1164.61 39.2C1211.81 31.2 1286.21 -3.43323e-05 1310.21 -3.43323e-05C1319.81 -3.43323e-05 1323.81 5.59999 1323.81 14.4C1323.81 88.8 1318.21 174.4 1318.21 282.4V572.8ZM1477.99 676.8C1451.59 676.8 1430.79 656 1430.79 629.6C1430.79 604 1451.59 582.4 1477.99 582.4C1503.59 582.4 1525.19 604 1525.19 629.6C1525.19 656 1503.59 676.8 1477.99 676.8ZM1721.51 572.8C1721.51 641.6 1750.31 654.4 1792.71 654.4C1800.71 654.4 1803.11 656 1803.11 660.8C1803.11 665.6 1800.71 668 1792.71 668C1767.11 668 1730.31 664 1704.71 664H1660.71C1633.51 664 1599.11 668 1567.11 668C1559.11 668 1555.91 666.4 1555.91 660.8C1555.91 656 1559.11 654.4 1567.11 654.4C1617.51 654.4 1643.11 641.6 1643.91 572.8V100.8C1643.91 52 1631.91 48 1618.31 48C1597.51 48 1575.11 52 1566.31 52.8C1559.11 53.6 1556.71 52 1556.71 47.2C1556.71 43.2 1559.91 40.8 1567.91 39.2C1615.11 31.2 1689.51 -3.43323e-05 1713.51 -3.43323e-05C1723.11 -3.43323e-05 1727.11 5.59999 1727.11 14.4C1727.11 88.8 1721.51 174.4 1721.51 282.4V572.8ZM1950.9 572.8C1950.9 641.6 1979.7 654.4 2022.1 654.4C2030.1 654.4 2032.5 656 2032.5 660.8C2032.5 665.6 2030.1 668 2022.1 668C1996.5 668 1959.7 664 1934.1 664H1890.1C1862.9 664 1828.5 668 1796.5 668C1788.5 668 1785.3 666.4 1785.3 660.8C1785.3 656 1788.5 654.4 1796.5 654.4C1846.9 654.4 1872.5 641.6 1873.3 572.8V100.8C1873.3 52 1861.3 48 1847.7 48C1826.9 48 1804.5 52 1795.7 52.8C1788.5 53.6 1786.1 52 1786.1 47.2C1786.1 43.2 1789.3 40.8 1797.3 39.2C1844.5 31.2 1918.9 -3.43323e-05 1942.9 -3.43323e-05C1952.5 -3.43323e-05 1956.5 5.59999 1956.5 14.4C1956.5 88.8 1950.9 174.4 1950.9 282.4V572.8ZM2180.29 572.8C2180.29 641.6 2209.09 654.4 2251.49 654.4C2259.49 654.4 2261.89 656 2261.89 660.8C2261.89 665.6 2259.49 668 2251.49 668C2225.89 668 2189.09 664 2163.49 664H2119.49C2092.29 664 2057.89 668 2025.89 668C2017.89 668 2014.69 666.4 2014.69 660.8C2014.69 656 2017.89 654.4 2025.89 654.4C2076.29 654.4 2101.89 641.6 2102.69 572.8V100.8C2102.69 52 2090.69 48 2077.09 48C2056.29 48 2033.89 52 2025.09 52.8C2017.89 53.6 2015.49 52 2015.49 47.2C2015.49 43.2 2018.69 40.8 2026.69 39.2C2073.89 31.2 2148.29 -3.43323e-05 2172.29 -3.43323e-05C2181.89 -3.43323e-05 2185.89 5.59999 2185.89 14.4C2185.89 88.8 2180.29 174.4 2180.29 282.4V572.8ZM2409.68 572.8C2409.68 641.6 2438.48 654.4 2480.88 654.4C2488.88 654.4 2491.28 656 2491.28 660.8C2491.28 665.6 2488.88 668 2480.88 668C2455.28 668 2418.48 664 2392.88 664H2348.88C2321.68 664 2287.28 668 2255.28 668C2247.27 668 2244.07 666.4 2244.07 660.8C2244.07 656 2247.27 654.4 2255.28 654.4C2305.67 654.4 2331.28 641.6 2332.08 572.8V100.8C2332.08 52 2320.08 48 2306.48 48C2285.68 48 2263.28 52 2254.48 52.8C2247.27 53.6 2244.87 52 2244.87 47.2C2244.87 43.2 2248.07 40.8 2256.08 39.2C2303.28 31.2 2377.68 -3.43323e-05 2401.68 -3.43323e-05C2411.28 -3.43323e-05 2415.28 5.59999 2415.28 14.4C2415.28 88.8 2409.68 174.4 2409.68 282.4V572.8ZM2569.46 676.8C2543.06 676.8 2522.26 656 2522.26 629.6C2522.26 604 2543.06 582.4 2569.46 582.4C2595.06 582.4 2616.66 604 2616.66 629.6C2616.66 656 2595.06 676.8 2569.46 676.8ZM2812.98 572.8C2812.98 641.6 2841.78 654.4 2884.18 654.4C2892.18 654.4 2894.58 656 2894.58 660.8C2894.58 665.6 2892.18 668 2884.18 668C2858.58 668 2821.78 664 2796.18 664H2752.18C2724.98 664 2690.58 668 2658.58 668C2650.58 668 2647.38 666.4 2647.38 660.8C2647.38 656 2650.58 654.4 2658.58 654.4C2708.98 654.4 2734.58 641.6 2735.38 572.8V100.8C2735.38 52 2723.38 48 2709.78 48C2688.98 48 2666.58 52 2657.78 52.8C2650.58 53.6 2648.18 52 2648.18 47.2C2648.18 43.2 2651.38 40.8 2659.38 39.2C2706.58 31.2 2780.98 -3.43323e-05 2804.98 -3.43323e-05C2814.58 -3.43323e-05 2818.58 5.59999 2818.58 14.4C2818.58 88.8 2812.98 174.4 2812.98 282.4V572.8ZM3042.37 572.8C3042.37 641.6 3071.17 654.4 3113.57 654.4C3121.57 654.4 3123.97 656 3123.97 660.8C3123.97 665.6 3121.57 668 3113.57 668C3087.97 668 3051.17 664 3025.57 664H2981.57C2954.37 664 2919.97 668 2887.97 668C2879.97 668 2876.77 666.4 2876.77 660.8C2876.77 656 2879.97 654.4 2887.97 654.4C2938.37 654.4 2963.97 641.6 2964.77 572.8V100.8C2964.77 52 2952.77 48 2939.17 48C2918.37 48 2895.97 52 2887.17 52.8C2879.97 53.6 2877.57 52 2877.57 47.2C2877.57 43.2 2880.77 40.8 2888.77 39.2C2935.97 31.2 3010.37 -3.43323e-05 3034.37 -3.43323e-05C3043.97 -3.43323e-05 3047.97 5.59999 3047.97 14.4C3047.97 88.8 3042.37 174.4 3042.37 282.4V572.8ZM3271.76 572.8C3271.76 641.6 3300.56 654.4 3342.96 654.4C3350.96 654.4 3353.36 656 3353.36 660.8C3353.36 665.6 3350.96 668 3342.96 668C3317.36 668 3280.56 664 3254.96 664H3210.96C3183.76 664 3149.36 668 3117.36 668C3109.36 668 3106.16 666.4 3106.16 660.8C3106.16 656 3109.36 654.4 3117.36 654.4C3167.76 654.4 3193.36 641.6 3194.16 572.8V100.8C3194.16 52 3182.16 48 3168.56 48C3147.76 48 3125.36 52 3116.56 52.8C3109.36 53.6 3106.96 52 3106.96 47.2C3106.96 43.2 3110.16 40.8 3118.16 39.2C3165.36 31.2 3239.76 -3.43323e-05 3263.76 -3.43323e-05C3273.36 -3.43323e-05 3277.36 5.59999 3277.36 14.4C3277.36 88.8 3271.76 174.4 3271.76 282.4V572.8ZM3501.14 572.8C3501.14 641.6 3529.94 654.4 3572.34 654.4C3580.34 654.4 3582.74 656 3582.74 660.8C3582.74 665.6 3580.34 668 3572.34 668C3546.74 668 3509.94 664 3484.34 664H3440.34C3413.14 664 3378.74 668 3346.74 668C3338.74 668 3335.54 666.4 3335.54 660.8C3335.54 656 3338.74 654.4 3346.74 654.4C3397.14 654.4 3422.74 641.6 3423.54 572.8V100.8C3423.54 52 3411.54 48 3397.94 48C3377.14 48 3354.74 52 3345.94 52.8C3338.74 53.6 3336.34 52 3336.34 47.2C3336.34 43.2 3339.54 40.8 3347.54 39.2C3394.74 31.2 3469.14 -3.43323e-05 3493.14 -3.43323e-05C3502.74 -3.43323e-05 3506.74 5.59999 3506.74 14.4C3506.74 88.8 3501.14 174.4 3501.14 282.4V572.8ZM3660.93 676.8C3634.53 676.8 3613.73 656 3613.73 629.6C3613.73 604 3634.53 582.4 3660.93 582.4C3686.53 582.4 3708.13 604 3708.13 629.6C3708.13 656 3686.53 676.8 3660.93 676.8ZM3904.45 572.8C3904.45 641.6 3933.25 654.4 3975.65 654.4C3983.65 654.4 3986.05 656 3986.05 660.8C3986.05 665.6 3983.65 668 3975.65 668C3950.05 668 3913.25 664 3887.65 664H3843.65C3816.45 664 3782.05 668 3750.05 668C3742.05 668 3738.85 666.4 3738.85 660.8C3738.85 656 3742.05 654.4 3750.05 654.4C3800.45 654.4 3826.05 641.6 3826.85 572.8V100.8C3826.85 52 3814.85 48 3801.25 48C3780.45 48 3758.05 52 3749.25 52.8C3742.05 53.6 3739.65 52 3739.65 47.2C3739.65 43.2 3742.85 40.8 3750.85 39.2C3798.05 31.2 3872.45 -3.43323e-05 3896.45 -3.43323e-05C3906.05 -3.43323e-05 3910.05 5.59999 3910.05 14.4C3910.05 88.8 3904.45 174.4 3904.45 282.4V572.8ZM4133.84 572.8C4133.84 641.6 4162.64 654.4 4205.04 654.4C4213.04 654.4 4215.44 656 4215.44 660.8C4215.44 665.6 4213.04 668 4205.04 668C4179.44 668 4142.64 664 4117.04 664H4073.04C4045.84 664 4011.44 668 3979.44 668C3971.44 668 3968.24 666.4 3968.24 660.8C3968.24 656 3971.44 654.4 3979.44 654.4C4029.84 654.4 4055.44 641.6 4056.24 572.8V100.8C4056.24 52 4044.24 48 4030.64 48C4009.84 48 3987.44 52 3978.64 52.8C3971.44 53.6 3969.04 52 3969.04 47.2C3969.04 43.2 3972.24 40.8 3980.24 39.2C4027.44 31.2 4101.84 -3.43323e-05 4125.84 -3.43323e-05C4135.44 -3.43323e-05 4139.44 5.59999 4139.44 14.4C4139.44 88.8 4133.84 174.4 4133.84 282.4V572.8ZM4363.22 572.8C4363.22 641.6 4392.02 654.4 4434.42 654.4C4442.42 654.4 4444.82 656 4444.82 660.8C4444.82 665.6 4442.42 668 4434.42 668C4408.82 668 4372.02 664 4346.42 664H4302.42C4275.22 664 4240.82 668 4208.82 668C4200.82 668 4197.62 666.4 4197.62 660.8C4197.62 656 4200.82 654.4 4208.82 654.4C4259.22 654.4 4284.82 641.6 4285.62 572.8V100.8C4285.62 52 4273.62 48 4260.02 48C4239.22 48 4216.82 52 4208.02 52.8C4200.82 53.6 4198.42 52 4198.42 47.2C4198.42 43.2 4201.62 40.8 4209.62 39.2C4256.82 31.2 4331.22 -3.43323e-05 4355.22 -3.43323e-05C4364.82 -3.43323e-05 4368.82 5.59999 4368.82 14.4C4368.82 88.8 4363.22 174.4 4363.22 282.4V572.8ZM4523.01 676.8C4496.61 676.8 4475.81 656 4475.81 629.6C4475.81 604 4496.61 582.4 4523.01 582.4C4548.61 582.4 4570.21 604 4570.21 629.6C4570.21 656 4548.61 676.8 4523.01 676.8ZM4766.53 572.8C4766.53 641.6 4795.33 654.4 4837.73 654.4C4845.73 654.4 4848.13 656 4848.13 660.8C4848.13 665.6 4845.73 668 4837.73 668C4812.13 668 4775.33 664 4749.73 664H4705.73C4678.53 664 4644.13 668 4612.13 668C4604.13 668 4600.93 666.4 4600.93 660.8C4600.93 656 4604.13 654.4 4612.13 654.4C4662.53 654.4 4688.13 641.6 4688.93 572.8V100.8C4688.93 52 4676.93 48 4663.33 48C4642.53 48 4620.13 52 4611.33 52.8C4604.13 53.6 4601.73 52 4601.73 47.2C4601.73 43.2 4604.93 40.8 4612.93 39.2C4660.13 31.2 4734.53 -3.43323e-05 4758.53 -3.43323e-05C4768.13 -3.43323e-05 4772.13 5.59999 4772.13 14.4C4772.13 88.8 4766.53 174.4 4766.53 282.4V572.8ZM4995.92 572.8C4995.92 641.6 5024.72 654.4 5067.12 654.4C5075.12 654.4 5077.52 656 5077.52 660.8C5077.52 665.6 5075.12 668 5067.12 668C5041.52 668 5004.72 664 4979.12 664H4935.12C4907.92 664 4873.52 668 4841.52 668C4833.52 668 4830.32 666.4 4830.32 660.8C4830.32 656 4833.52 654.4 4841.52 654.4C4891.92 654.4 4917.52 641.6 4918.32 572.8V100.8C4918.32 52 4906.32 48 4892.72 48C4871.92 48 4849.52 52 4840.72 52.8C4833.52 53.6 4831.12 52 4831.12 47.2C4831.12 43.2 4834.32 40.8 4842.32 39.2C4889.52 31.2 4963.92 -3.43323e-05 4987.92 -3.43323e-05C4997.52 -3.43323e-05 5001.52 5.59999 5001.52 14.4C5001.52 88.8 4995.92 174.4 4995.92 282.4V572.8ZM5225.31 572.8C5225.31 641.6 5254.11 654.4 5296.51 654.4C5304.51 654.4 5306.91 656 5306.91 660.8C5306.91 665.6 5304.51 668 5296.51 668C5270.91 668 5234.11 664 5208.51 664H5164.51C5137.31 664 5102.91 668 5070.91 668C5062.91 668 5059.71 666.4 5059.71 660.8C5059.71 656 5062.91 654.4 5070.91 654.4C5121.31 654.4 5146.91 641.6 5147.71 572.8V100.8C5147.71 52 5135.71 48 5122.11 48C5101.31 48 5078.91 52 5070.11 52.8C5062.91 53.6 5060.51 52 5060.51 47.2C5060.51 43.2 5063.71 40.8 5071.71 39.2C5118.91 31.2 5193.31 -3.43323e-05 5217.31 -3.43323e-05C5226.91 -3.43323e-05 5230.91 5.59999 5230.91 14.4C5230.91 88.8 5225.31 174.4 5225.31 282.4V572.8Z" fill="#DD0000"/>
</svg>
